<?xml version="1.0" encoding="utf-8"?>
<!-- Generator: Adobe Illustrator 21.1.0, SVG Export Plug-In . SVG Version: 6.00 Build 0)  -->
<svg version="1.1" id="Layer_1" xmlns="http://www.w3.org/2000/svg" xmlns:xlink="http://www.w3.org/1999/xlink" x="0px" y="0px"
	 viewBox="0 0 1280 445" style="enable-background:new 0 0 1280 445;" xml:space="preserve">
<g>
	<path d="M1180.6,186.1c2.4,2.9,3.3,5.1,4.9,5.8c44.5,20.6,48.3,39.2,8.2,68.3c-56.9,41.4-116.9,78.3-191.9,75.8
		c-44.7-1.5-56.3-10.2-63-53.8c-2.4-15.3-11.2-14.3-21.6-14c-24.4,0.7-49.2,4.2-72.9-2.5c-9.9-2.8-28.6-2-25.6-19.6
		c2.7-16.3,13.9-31.2,29.7-36.2c11.4-3.6,29.8-1.6,34,12.2c8,26.7,24,9,36.5,9.2c15.7,0.2,20.9-9.4,19.7-24.1
		c-0.7-8.1-0.1-16.3-0.1-24.4c-0.1-48.1-0.1-48.1-45.7-27.9c-2.3,9,5.7,9.1,10.4,11.9c14.2,8.5,6.9,18.1-2.8,17.7
		c-61.7-2.6-98.5,47.9-149.5,68.2c-55.4,22-109.8,43.8-170.5,38.9c-29.7-2.4-61.2-2.7-77.9-36.4c-6.5-13.1-18.3-2.4-26.9,0.5
		C366.4,292,262.4,340.9,156.8,386c-25.2,10.7-50.3,24-79,16c-11.3-3.1-26.8-3.9-30.3-17c-3.5-13,8.2-22.3,17.3-30.3
		c53.5-47.3,112.5-87.3,170.7-128.4c41.2-29.1,82.5-58.1,130.6-91.9c-44.3-1.8-78.5,7.4-112.8,12.7C199.6,155.6,146,158.9,92,157.5
		c-9-0.2-18.1-1.8-26.8-4.3c-10.2-3-25.5-3.3-25.3-17.4c0.3-15.2,14.3-21.2,27.6-24.5c6.7-1.7,14.8-3.3,20.9-1.1
		c63,22.6,124.8,2.5,186.8-4.8c37.3-4.4,74.5-10,111.8-14.8c23-2.9,52.1-1.2,60.7,17.5c10.2,22.1-17.9,35.4-34.3,47.4
		C340.2,208.7,266,260.7,192.3,313.3c-4.9,3.5-9.3,7.6-12.1,15.4c25.7-10.9,51.4-21.5,77-32.7c62.5-27.3,125.7-52.4,190.2-74.6
		c18.1-6.2,35.3-15.2,55.6-6.9c11.4,4.7,18.3-5,25.3-12.7c48.7-53.1,107.5-93,169.7-128.3c23.3-13.2,47.5-17.9,72.2-3.6
		c12.2,7.1,24.1,5,37.6,4.1c54.5-3.5,109.5-10.4,163.4,4.5c15.9,4.4,30.2,0.3,44.9-2.8c52.7-10.8,105.3-22.3,158.1-32.9
		c24.6-4.9,58.1-5.2,63.9,17.8c5.6,22.6-29.2,27.8-48.7,37.1c-9.5,4.5-19.8,5.1-29.8,1.9c-56.7-18-107.1,11.1-159.9,21.5
		c-17.8,3.5-10.9,19.7-11,30.6c-0.4,60.7-0.1,60.7,56.4,39.2c39-14.8,78.3-28.8,116.6-45.1c22-9.4,46.7-5.4,53.6,10.8
		C1222.8,173.7,1193.8,174.9,1180.6,186.1z M817.5,161.4c-58.9-14.4-110.2,9.3-161-4.1c-3.2-0.8-8,1.6-11,3.9
		c-28.3,21.4-57.5,41.9-78.8,71c-4.1,5.5-10.8,11.3-7.4,18.7c3.7,7.9,12.6,4.3,19.2,4.4C668.4,256,740.3,211.6,817.5,161.4z
		 M989.5,276.7c-3.3,22.5,5.5,28.5,27.7,23.1c46.9-11.6,88.5-34,128.3-60.1c7.5-4.9,23.7-9.3,15.3-24c-7.7-13.4-19.3-17.6-35.8-11
		c-38.4,15.4-77.4,29.6-116.6,42.7C992.7,252.6,987.2,261.3,989.5,276.7z M810.2,116.7c27.6,15.3,50,9.9,77.4-9.4
		C858.2,106.8,835.3,104.7,810.2,116.7z"/>
</g>
</svg>
